<?xml version="1.0" encoding="UTF-8" standalone="no" ?>
<!DOCTYPE svg PUBLIC "-//W3C//DTD SVG 1.1//EN" "http://www.w3.org/Graphics/SVG/1.1/DTD/svg11.dtd">
<svg xmlns="http://www.w3.org/2000/svg" xmlns:xlink="http://www.w3.org/1999/xlink" version="1.1" width="600" height="250" viewBox="0 0 600 250" xml:space="preserve">
<desc>Created with Fabric.js 5.2.4</desc>
<defs>
</defs>
<g transform="matrix(1 0 0 1 300 125)" id="617a772d-2a02-476a-b0a6-8a65dcd91fbf"  >
<rect style="stroke: none; stroke-width: 1; stroke-dasharray: none; stroke-linecap: butt; stroke-dashoffset: 0; stroke-linejoin: miter; stroke-miterlimit: 4; fill: rgb(255,255,255); fill-rule: nonzero; opacity: 1; visibility: hidden;" vector-effect="non-scaling-stroke"  x="-300" y="-125" rx="0" ry="0" width="600" height="250" />
</g>
<g transform="matrix(Infinity NaN NaN Infinity 0 0)" id="1994f5bc-d478-460f-bb67-a14eaa1de32c"  >
</g>
<g transform="matrix(0.8 0 0 0.8 300 125)"  >
<g style="" vector-effect="non-scaling-stroke"   >
		<g transform="matrix(1 0 0 1 161.49 0.34)"  >
<path style="stroke: none; stroke-width: 1; stroke-dasharray: none; stroke-linecap: butt; stroke-dashoffset: 0; stroke-linejoin: miter; stroke-miterlimit: 4; fill: rgb(102,102,102); fill-rule: evenodd; opacity: 1;" vector-effect="non-scaling-stroke"  transform=" translate(-561.77, -400.62)" d="M 642.409 416.749 C 640.577 416.749 638.364 416.749 636.176 416.749 C 606.662 416.723 577.0980000000001 416.673 547.5840000000001 416.673 C 537.5340000000001 416.647 536.186 418.047 536.1600000000001 428.071 C 536.109 436.059 536.109 443.97200000000004 536.1600000000001 451.935 C 536.1850000000001 462.774 537.2790000000001 463.868 548.4240000000001 463.868 C 580.9140000000001 463.894 613.4040000000001 464.072 645.8960000000001 463.741 C 652.638 463.66499999999996 655.2330000000001 465.293 654.8510000000001 472.417 C 654.2910000000002 483.30699999999996 654.5460000000002 494.248 654.7750000000001 505.13699999999994 C 654.8510000000001 509.8949999999999 653.5790000000001 512.1089999999999 648.287 512.1089999999999 C 590.7860000000001 511.95699999999994 533.311 511.95699999999994 475.836 512.0569999999999 C 470.774 512.0819999999999 468.636 510.8109999999999 468.661 505.1369999999999 C 468.864 435.8309999999999 468.864 366.5509999999999 468.738 297.2439999999999 C 468.738 291.39199999999994 470.594 289.1529999999999 476.574 289.1789999999999 C 533.3870000000001 289.2809999999999 590.176 289.2299999999999 646.99 289.12799999999993 C 652.46 289.10299999999995 654.826 290.93499999999995 654.674 296.65899999999993 C 654.394 306.8619999999999 654.369 317.11499999999995 654.776 327.3179999999999 C 655.005 333.0679999999999 652.842 334.6959999999999 647.2959999999999 334.67099999999994 C 614.5769999999999 334.49199999999996 581.8829999999999 334.5439999999999 549.1629999999999 334.61999999999995 C 537.3829999999999 334.6449999999999 536.0339999999999 336.19699999999995 536.0099999999999 348.1809999999999 C 535.9849999999999 353.16799999999995 535.9579999999999 358.17999999999995 536.0099999999999 363.1669999999999 C 536.1619999999999 372.40199999999993 537.6129999999998 374.0309999999999 546.7459999999999 373.87799999999993 C 576.0059999999999 373.4959999999999 605.2899999999998 372.93699999999995 634.5749999999998 372.47799999999995 C 643.5819999999998 372.35099999999994 643.6329999999998 372.453 643.6059999999998 381.45899999999995 C 643.5819999999998 392.57699999999994 643.5039999999998 403.69499999999994 643.3769999999997 414.81399999999996 C 643.375 415.221 642.994 415.604 642.409 416.749 z" stroke-linecap="round" />
</g>
		<g transform="matrix(1 0 0 1 -250.22 0)"  >
<path style="stroke: none; stroke-width: 1; stroke-dasharray: none; stroke-linecap: butt; stroke-dashoffset: 0; stroke-linejoin: miter; stroke-miterlimit: 4; fill: rgb(102,102,102); fill-rule: evenodd; opacity: 1;" vector-effect="non-scaling-stroke"  transform=" translate(-150.06, -400.28)" d="M 242.906 349.986 C 236.239 350.46999999999997 230.43800000000002 350.878 224.612 351.30899999999997 C 212.858 352.14899999999994 201.103 352.835 189.375 353.87899999999996 C 184.413 354.337 180.699 353.52399999999994 177.977 348.765 C 175.05 343.651 171.514 338.86899999999997 167.901 334.212 C 156.579 319.532 134.419 323.4 124.08800000000001 331.311 C 115.89600000000002 337.596 118.59200000000001 352.60699999999997 128.49 355.65999999999997 C 148.81900000000002 361.945 169.453 367.33799999999997 189.782 373.64799999999997 C 199.27200000000002 376.575 208.63500000000002 380.26399999999995 217.566 384.614 C 248.758 399.804 255.501 433.489 249.217 458.448 C 241.27900000000002 489.94599999999997 218.91400000000002 505.873 189.324 513.3539999999999 C 158.793 521.088 128.287 520.044 98.16300000000001 510.5299999999999 C 70.04800000000002 501.6749999999999 55.26600000000001 481.6269999999999 49.99900000000001 453.4869999999999 C 47.63300000000001 440.8419999999999 47.58200000000001 440.7909999999999 60.35400000000001 439.9249999999999 C 73.94100000000002 439.0099999999999 87.57900000000001 438.5509999999999 101.114 437.2019999999999 C 108.747 436.46499999999986 112.665 438.90699999999987 114.904 446.3619999999999 C 119.815 462.67099999999994 131.417 471.7799999999999 147.929 475.18799999999993 C 160.93 477.8859999999999 177.544 468.92999999999995 182.175 456.3349999999999 C 185.305 447.8619999999999 181.28500000000003 437.37999999999994 172.125 432.0369999999999 C 167.088 429.0859999999999 161.49 426.9479999999999 155.943 425.0909999999999 C 137.675 418.9589999999999 119.25500000000001 413.3119999999999 101.01200000000001 407.1529999999999 C 89.07900000000001 403.0569999999999 78.34300000000002 396.8759999999999 69.66600000000001 387.3599999999999 C 44.656000000000006 359.9069999999999 52.08500000000001 316.34899999999993 84.80400000000002 298.8189999999999 C 125.74200000000002 276.8869999999999 167.137 277.0909999999999 209.01600000000002 295.9439999999999 C 227.055 304.0609999999999 237.639 317.5709999999999 240.36200000000002 337.2379999999999 C 240.896 341.184 241.913 345.102 242.906 349.986 z" stroke-linecap="round" />
</g>
		<g transform="matrix(1 0 0 1 -44.13 0.93)"  >
<path style="stroke: none; stroke-width: 1; stroke-dasharray: none; stroke-linecap: butt; stroke-dashoffset: 0; stroke-linejoin: miter; stroke-miterlimit: 4; fill: rgb(102,102,102); fill-rule: evenodd; opacity: 1;" vector-effect="non-scaling-stroke"  transform=" translate(-356.15, -401.21)" d="M 259.723 400.872 C 259.723 366.092 259.69800000000004 331.363 259.723 296.634 C 259.723 287.805 260.028 287.474 269.01 287.474 C 303.536 287.474 338.062 287.21999999999997 372.563 287.652 C 384.292 287.805 396.199 288.721 407.674 291.01099999999997 C 432.989 296.15 449.197 314.29099999999994 451.69 339.96299999999997 C 453.243 356.19499999999994 453.904 372.479 446.85699999999997 388.15099999999995 C 436.044 412.14399999999995 417.114 424.30499999999995 391.61999999999995 426.08599999999996 C 373.53 427.38399999999996 355.33899999999994 427.25699999999995 337.198 427.23199999999997 C 330.83799999999997 427.207 328.44599999999997 428.85999999999996 328.54699999999997 435.628 C 328.929 459.009 328.72499999999997 482.417 328.674 505.798 C 328.674 514.017 327.85999999999996 514.806 319.769 514.83 C 302.29 514.8820000000001 284.786 514.678 267.307 515.009 C 261.27700000000004 515.111 259.572 513.025 259.598 507.148 C 259.825 471.705 259.723 436.288 259.723 400.872 z M 328.724 357.645 L 328.74899999999997 357.645 C 328.74899999999997 364.464 328.92699999999996 371.282 328.69899999999996 378.101 C 328.54599999999994 382.757 330.40399999999994 384.843 335.085 384.563 C 343.914 384.00399999999996 352.793 384.08 361.54499999999996 383.01099999999997 C 375.30999999999995 381.282 383.52799999999996 371.58799999999997 383.22299999999996 358.61299999999994 C 382.84099999999995 344.56899999999996 373.22299999999996 333.2459999999999 359.866 332.15299999999996 C 351.52099999999996 331.465 343.07399999999996 331.94899999999996 334.704 331.77099999999996 C 330.378 331.69499999999994 328.546 333.52699999999993 328.67400000000004 337.90299999999996 C 328.877 344.465 328.724 351.055 328.724 357.645 z" stroke-linecap="round" />
</g>
		<g transform="matrix(1 0 0 1 318.4 63.76)"  >
<path style="stroke: none; stroke-width: 1; stroke-dasharray: none; stroke-linecap: butt; stroke-dashoffset: 0; stroke-linejoin: miter; stroke-miterlimit: 4; fill: rgb(102,102,102); fill-rule: evenodd; opacity: 1;" vector-effect="non-scaling-stroke"  transform=" translate(-718.69, -464.05)" d="M 714.971 465.675 C 726.599 449.08500000000004 738.251 432.497 750.871 414.458 C 751.2769999999999 417.71500000000003 751.635 419.165 751.635 420.615 C 751.66 449.213 751.507 477.836 751.787 506.433 C 751.8380000000001 512.132 749.421 513.455 744.6120000000001 513.455 C 727.0820000000001 513.455 709.6020000000001 513.505 692.124 513.633 C 688.23 513.658 685.533 513.048 685.585 508.13700000000006 C 685.967 481.83000000000004 686.145 455.49700000000007 686.373 429.16300000000007 C 686.4490000000001 419.80000000000007 686.399 419.7490000000001 695.9140000000001 419.80000000000007 C 712.9100000000001 419.87700000000007 710.3660000000001 418.09600000000006 710.5450000000001 434.12500000000006 C 710.6210000000001 442.06300000000005 710.392 450.02500000000003 710.647 457.96400000000006 C 710.7230000000001 460.40600000000006 711.893 462.84900000000005 712.529 465.29100000000005 C 713.343 465.42 714.158 465.547 714.971 465.675 z" stroke-linecap="round" />
</g>
		<g transform="matrix(1 0 0 1 317.63 -69.16)"  >
<path style="stroke: none; stroke-width: 1; stroke-dasharray: none; stroke-linecap: butt; stroke-dashoffset: 0; stroke-linejoin: miter; stroke-miterlimit: 4; fill: rgb(102,102,102); fill-rule: evenodd; opacity: 1;" vector-effect="non-scaling-stroke"  transform=" translate(-717.91, -331.12)" d="M 712.809 325.918 C 712.682 327.8 712.4789999999999 329.71 712.4789999999999 331.56600000000003 C 712.453 341.819 712.3509999999999 351.99600000000004 712.555 362.225 C 712.6569999999999 366.958 711.2059999999999 369.425 706.016 369.14500000000004 C 700.799 368.89000000000004 695.559 368.91600000000005 690.343 369.17 C 685.432 369.425 684.0319999999999 366.906 684.0319999999999 362.632 C 684.084 340.573 684.0579999999999 318.565 684.0579999999999 296.531 C 684.0579999999999 291.366 686.1439999999999 288.644 691.8179999999999 288.72 C 709.3229999999999 288.92400000000004 726.8019999999999 288.87300000000005 744.2809999999998 288.74600000000004 C 749.6249999999999 288.74600000000004 751.8379999999999 290.47600000000006 751.7869999999998 296.32800000000003 C 751.4809999999998 320.16700000000003 751.6599999999999 344.00800000000004 751.6349999999998 367.872 C 751.6349999999998 369.552 751.3289999999997 371.231 749.7509999999997 373.521 C 738.3789999999998 357.237 727.0059999999997 340.954 715.6069999999997 324.696 C 714.692 325.104 713.75 325.511 712.809 325.918 z" stroke-linecap="round" />
</g>
</g>
</g>
</svg>